<?xml version="1.0" standalone="no"?><!DOCTYPE svg PUBLIC "-//W3C//DTD SVG 1.1//EN" "http://www.w3.org/Graphics/SVG/1.1/DTD/svg11.dtd"><svg t="1770134070934" class="icon" viewBox="0 0 1024 1024" version="1.1" xmlns="http://www.w3.org/2000/svg" p-id="14163" xmlns:xlink="http://www.w3.org/1999/xlink" width="200" height="200"><path d="M932 804.85c-3.66-20.15-5.83-40.56-9.43-60.72-2.76-15.46-7.35-30.5-19.92-41.29-8.32-7.14-16.5-14.8-25.86-20.33-26.1-15.41-37.56-38.17-37.36-67.85 0.21-31.68-2.21-63.02-14.29-92.82-2.86-7.07 0.12-8.79 6.59-11.29 13.81-5.33 28.21-10.65 40.08-19.16 23.95-17.18 35.17-43.18 42.72-70.84 0.32-1.17-0.18-2.56-0.27-3.56-7.76 5.2-15.11 10.13-22.45 15.05 27.34-46.08 33.18-88.99 13.24-108.57l-8.11 20.43c-1.66-0.38-1.2-0.28-2.86-0.66 1.73-22.29-2.43-43.13-14.87-61.54-12.22-18.09-28-32.14-49.14-41.16v18.13c-15.83-32.73-43.67-45.01-78.32-50.22 4.49 6.34 7.93 11.21 12.68 17.92-33.16-12.28-63.48-21.79-94.5 0.15l19.6 8.17c-46.89 8.88-72.58 27.08-72.17 52.57 4.77-3.27 9.46-6.48 14.15-9.7-19.88 33.15-23.71 59.59-10.02 76.01 10.02-26.31 10.02-26.31 16.25-28.88-4.6 29.85-4.62 30.94-0.68 40.18 5.4 12.69 19.54 23.43 29.81 23.22-1.82-5.54-3.71-11.31-5.61-17.07 1.31-0.84 1.15-0.74 2.46-1.58 16.3 14.72 33.46 23.79 55.28 9.46-1.92-0.59-2.76-0.95-3.63-1.1-19.29-3.42-29.47-17.84-26.72-37.88 1.98-14.36 13.58-20.85 33.45-18.71 1.52 0.16 3.08 0.18 4.56 0.55 24.32 6.05 46.25 27.44 31.82 58.58-9.31 20.08-24.18 33.46-42.43 44.01-3.92 2.27-9.31 2.77-14.02 2.8-33.65 0.15-67.32-0.8-100.95 0.08-51.7 1.35-103.5 5.96-154.9-1.99-15.53-2.4-32.57-7.74-44.56-17.25-16.47-13.05-28.94-31.21-42.67-47.57-1.68-2-1.63-6.8-0.51-9.54 4.29-10.42 1.15-20.82-9.44-22.46-11.89-1.84-10.86-9.61-12.07-17.6 9.81-0.54 19.4 0.52 27.93-1.99 8.15-2.4 15.97-7.63 22.52-13.27 7.06-6.07 9.88-14.93 9.33-22.36-9.29-2.76-17.72-4.17-25.12-7.72-11.84-5.69-11.44-18.61-14.81-29.16-3.89-12.18-6.29-25.08-11.9-36.39-7.66-15.47-19.65-27.22-38.26-29.33-14.49-1.65-23.97 6.99-33.58 15.85-2.13 1.97-6.37 3.64-8.9 2.91-40.88-11.89-86.75 11.95-100.69 52.65-0.59 1.71-1.11 3.97-2.42 4.83-10.13 6.64-19.87 14.46-30.96 18.76-4.81 1.87-12.7-3.25-18.86-5.95-15.58-6.83-31.58 3.7-28.97 20.29 1.68 10.72 5.68 21.18 9.55 31.42 4.19 11.09 13.27 17.07 24.36 20.44 2.5 0.76 5.88 2.04 6.8 4.02 4.48 9.69 13.13 10.4 21.73 10.45 9.16 0.05 18.31-1.29 27.48-1.53 15.17-0.39 25.79 7.41 34.2 19.07-10.68 12.79-9.07 20.08 5.03 28.71 1.83 1.12 3.29 5.2 2.78 7.43-3.64 16.04-6.76 32.31-12.07 47.82-11.81 34.49-7.63 66.43 13.93 95.46 7.43 10.01 17.68 17.92 27.33 27.46-5.49 1.78-11.24 3.49-16.88 5.51-16.66 5.97-34.06 11.02-47.01 23.67-4.95 4.84-9.31 12.85-9.47 19.52-0.4 15.83 1.23 31.81 3.23 47.59 2.64 20.9 5.79 41.79 9.88 62.45 3.84 19.44 16.1 29.33 36.22 33.41 23.1 4.69 47.19 8.02 67.49 22.04 0.56 0.39 1.63 0.05 2.36 0.05 7.7-24.05-5.86-61.29-36.73-70.28-3.06-0.89-6.68-5.29-7.19-8.51-1.97-12.38-2.78-24.94-4.04-37.43-1.07-10.59-1.09-10.44 9.52-8.9 26.91 3.92 53.77 8.2 80.78 11.32 18.82 2.17 18.79 1.44 21.88 19.76 5.63 33.34 8.65 66.81 4.76 100.56-2.89 25.12-13.01 45.68-37.42 56.83-1.71 0.78-3.28 1.87-5.08 3.23-1.84 1.38-0.85 4.33 1.46 4.33h54.21c29.42 0 32.09-2.53 33.86-32.56 0.14-2.42 0.07-4.87-0.15-7.29-1.94-21.56 1.1-42.56 10.99-61.65 8.37-16.17 18.57-31.51 29.06-46.45 7.31-10.42 17.02-15.94 31.45-16.31 33.2-0.86 64.13-11.31 93.13-27.88 16.31-9.32 33.55-17.02 51.45-25.99 0.92 4.58 1.54 7.16 1.95 9.77 2.53 16.31 5.88 32.56 7.34 48.97 2.84 31.96 6.25 64 6.3 96.02 0.04 26.05-7.93 43.58-37.56 51.33-5.36 1.4-10.07 5.28-14.98 8.42-1.66 1.06-0.94 3.61 1.03 3.61h5.87c23.89 0 47.78-0.39 71.66 0.22 8.43 0.21 11.26-2.51 11.52-10.64 1-30.4 7.56-59.35 23.7-85.63 13.71-22.34 29.9-41.7 56.53-49.25 6.84-1.94 13.02-2.34 19.01 2.49 21.12 17.02 43.2 32.95 63.37 51.01 20.24 18.13 38.69 38.09 47.57 65.12 2.52 7.66 0.08 10.21-5.54 13.66-4.2 2.58-7.66 6.35-12.75 10.95-0.5 0.45-0.2 1.3 0.47 1.3h73.67c1.52 0 2.65-1.44 2.31-2.92-3.83-16.51-7.78-31.79-10.59-47.29zM216.87 267.78c-6.31 0-11.43-5.12-11.43-11.43s5.12-11.43 11.43-11.43 11.43 5.12 11.43 11.43c0.01 6.31-5.11 11.43-11.43 11.43z" fill="#d81e06" p-id="14164"></path></svg>