<?xml version="1.0" standalone="no"?><!DOCTYPE svg PUBLIC "-//W3C//DTD SVG 1.1//EN" "http://www.w3.org/Graphics/SVG/1.1/DTD/svg11.dtd"><svg t="1770133559064" class="icon" viewBox="0 0 1024 1024" version="1.1" xmlns="http://www.w3.org/2000/svg" p-id="3946" xmlns:xlink="http://www.w3.org/1999/xlink" width="200" height="200"><path d="M438.14 291.55c0.81-0.36 1.72-0.63 2.62-0.99l0.63-0.27 13.55-5.31 8.52-10.91c5.25-6.72 10.77-13.38 16.88-18.41 5.58-4.77 13.96-7.15 21.98-6.64l0.4 0.03c1.15 0.07 2.27-0.59 2.73-1.72 0.57-1.41-0.12-3.01-1.53-3.58-9.38-3.76-20.06-3.61-30.03 0.55-9.34 4.12-17.29 9.54-24.72 15.45-7.38 5.95-14.01 12.48-20.12 19.25-5.8 6.5-11.09 13.71-16.29 18.75 5.17-0.73 10.22-1.66 15.18-2.92 3.52-1.02 6.59-2.01 10.2-3.28z" fill="#d81e06" p-id="3947"></path><path d="M922.5 499.07c-1.54-7.23 3.16-7.77 2.53-15.18-0.72-8.49-8.67-16.98-10.66-20.32-0.54-1.08-0.81-3.97-0.54-5.87 0.54-3.34 7.23-6.96 7.23-6.96s-8.49-2.35-13.1 0.72c-6.23 4.15-8.67 9.66-12.28 13.82-0.18 0.09-0.27 0.27-0.36 0.36-5.51 5.06-13.28 12.01-15.63 12.56-0.72 0.18-1.72-0.45-2.89-1.54 37.4-53.48-4.79-124.21-51.67-165.31-21.23-18.61-58.99-41.28-63.32-71.99-1.99-13.46 0.9-19.51 7.95-30.26 5.33-8.13 10.12-9.21 14.18-10.75 3.16 5.24 8.13 11.47 15.18 13.91 14 4.88 16.17 1.54 23.12 11.2 5.06 7.05 4.43 18.16 4.43 18.16s11.74-14 8.85-28.18c-1.35-6.68-2.89-12.38-5.87-16.71 3.16-0.45 6.23-1.63 8.85-3.7 12.47-9.76 20.6-17.07 31.34-14.99 14.18 2.71 19.6 13.91 19.6 13.91s2.53-20.14-16.71-33.87c-11.83-8.49-24.48-10.12-35.95-7.77 4.7-12.19 8.4-19.42 14.81-24.39 5.87-4.61 26.92-10.84 31.25-10.84-3.52-1.81-19.87-9.48-40.11-5.15-8.31 1.81-16.26 4.88-23.49 9.39-0.09-0.18-0.18-0.27-0.27-0.45-8.04-13.19-24.12-25.02-25.11-25.56 0.72 1.54 6.32 14 7.14 25.2 1.17 15.63-8.85 19.87-21.32 35.23-4.7 5.78-5.42 15.99-5.15 23.85-34.51 4.88-54.11 38.93-47.06 75.7 7.86 41.19 43.18 69.92 69.38 99.45 18.25 20.6 59.26 74.8 14.99 95.66-33.78 15.9-59.17-28.36-74.52-49.68-29.09-40.29-69.56-73.17-122.49-59.98-0.9-0.36-1.99-0.72-3.07-1.17-9.58-3.52-18.16-0.72-22.13 3.07-0.54 0.45-0.27 1.26 0.36 1.44 2.53 0.72 4.7 1.81 6.59 2.98-4.34 1.99-8.22 4.25-11.92 6.59-1.9 0.09-4.15 0.27-6.68 0.45-10.21 0.99-16.71 7.23-18.7 12.38-0.27 0.63 0.36 1.26 0.99 1.08 3.25-0.54 6.14-0.36 8.76 0.09-1.72 1.9-3.25 3.79-4.7 5.87-2.53 0.9-5.69 2.53-9.76 4.88-8.76 5.15-12.1 13.55-11.74 19.06 0.09 0.63 0.81 0.99 1.35 0.63 3.07-2.17 6.32-3.34 9.12-3.97-0.9 2.08-1.63 4.25-2.35 6.5h-0.09c-2.26 1.63-5.06 4.25-8.67 8.13-6.96 7.5-7.68 16.53-5.69 21.68 0.18 0.63 0.99 0.72 1.45 0.18 2.35-2.89 5.06-4.97 7.59-6.41-0.54 3.43-0.99 6.87-1.36 10.3-1.72 1.99-3.7 4.7-6.14 8.4-5.51 8.58-4.7 17.52-1.99 22.4 0.36 0.54 1.17 0.45 1.45-0.09 1.63-2.89 3.61-5.15 5.6-6.96 0 4.06 0.09 8.04 0.18 12.01a80.67 80.67 0 0 0-4.43 7.59c-4.88 8.94-3.25 17.89-0.09 22.4 0.36 0.54 1.17 0.45 1.45-0.18 1.17-2.62 2.71-4.79 4.34-6.59 0.27 3.52 0.54 6.96 0.9 10.39-1.26 1.81-2.44 4.06-3.88 6.87-4.61 9.12-2.8 17.98 0.45 22.49 0.45 0.45 1.17 0.36 1.44-0.27 1.08-2.71 2.62-4.88 4.07-6.68 0.45 3.34 0.9 6.68 1.36 10.03-0.99 1.81-1.99 4.07-3.07 6.68-3.97 9.39-1.54 18.16 1.99 22.31 0.45 0.54 1.26 0.36 1.45-0.27 0.81-2.53 1.99-4.7 3.25-6.59 0.54 3.34 1.08 6.68 1.72 10.03-0.99 1.72-2.08 3.88-3.25 6.41-4.25 9.3-2.08 18.16 1.36 22.49 0.36 0.45 1.17 0.27 1.35-0.27 0.99-2.71 2.35-4.88 3.79-6.77 0.36 2.98 0.72 6.05 0.99 9.03-1.35 1.72-2.89 3.88-4.61 6.59-5.51 8.67-4.61 17.7-1.81 22.49 0.27 0.54 1.08 0.45 1.45-0.09 1.72-3.16 3.79-5.51 5.96-7.32-0.09 2.89-0.18 5.78-0.36 8.67-2.08 1.45-4.52 3.43-7.41 6.14-7.5 6.96-8.94 15.81-7.5 21.23 0.18 0.63 0.99 0.72 1.45 0.27 3.16-3.34 6.78-5.33 9.85-6.59-0.9 3.43-2.08 6.77-3.43 10.12-2.62 0.63-6.05 1.81-10.57 3.7-9.48 4.06-13.82 12.01-14.18 17.52 0 0.63 0.63 1.08 1.26 0.72 4.52-2.26 8.94-2.8 12.47-2.89-2.35 2.98-4.88 5.87-7.77 8.67-2.8-0.45-6.96-0.54-13.01 0-10.21 0.9-16.89 7.05-18.97 12.2-0.27 0.54 0.27 1.17 0.9 1.08 5.33-0.81 9.85 0.18 13.28 1.26-2.98 1.9-5.96 3.7-9.12 5.33-2.44-1.45-6.59-2.8-13.46-4.25-10.03-2.08-18.16 1.99-21.59 6.23-0.45 0.54-0.09 1.26 0.54 1.36 5.96 0.81 10.39 3.52 13.46 5.69-3.25 1.08-6.5 2.08-9.85 2.8-1.54-2.35-5.24-5.24-12.56-9.3-8.94-4.97-17.89-3.52-22.58-0.45-0.54 0.36-0.36 1.08 0.18 1.35 6.77 3.16 10.3 8.49 12.65 11.38 0.09 0.09 0.09 0.09 0.09 0.18-3.7 0.09-7.32 0.09-10.84-0.18-0.45-2.71-2.89-6.87-8.67-13.55-6.68-7.77-15.63-9.49-20.96-8.22-0.63 0.18-0.81 0.9-0.36 1.45 5.24 5.24 6.77 11.47 7.95 14.99 0.09 0.36 0.27 0.72 0.45 1.08-3.7-1.26-7.23-2.8-10.57-4.52 0.54-2.8-0.18-7.32-2.44-14.99-2.89-9.85-10.3-15.09-15.81-16.08-0.63-0.18-1.08 0.45-0.81 1.08 2.44 6.59 1.63 12.47 1.17 16.17a64.55 64.55 0 0 1-6.41-8.13c1.81-1.99 3.43-6.5 4.88-15.63 1.54-10.12-2.89-18.07-7.32-21.32-0.54-0.36-1.26 0-1.36 0.72-0.54 7.41-4.34 12.56-6.23 15.72l-0.27 0.54c-1.26-3.7-2.17-7.23-2.8-10.84 2.71-0.63 6.23-3.88 11.83-12.01 5.87-8.4 5.33-17.52 2.71-22.4-0.27-0.63-1.08-0.54-1.45 0-3.79 6.41-9.39 9.39-12.47 11.47 0.72-3.34 1.63-6.68 2.8-10.03 2.71-0.72 6.68-2.89 12.74-7.32 8.22-6.05 10.75-14.81 9.94-20.23-0.09-0.72-0.9-0.9-1.35-0.45-3.52 2.98-7.32 4.52-10.57 5.42 1.81-3.16 3.79-6.23 5.87-9.39 2.44-0.72 5.6-1.99 9.48-3.88 9.21-4.43 13.28-12.47 13.46-18.07 0.09-0.63-0.63-0.99-1.26-0.72-2.44 1.35-4.88 2.26-7.14 2.8 2.44-3.16 4.97-6.41 7.5-9.58 1.81-0.54 3.88-1.26 6.23-2.17 9.58-3.79 14.18-11.56 14.81-17.16 0.09-0.63-0.63-0.99-1.26-0.72-1.9 0.9-3.79 1.45-5.51 1.81a78.52 78.52 0 0 0 4.34-6.23s0.09 0 0.09-0.09c1.99-0.81 4.34-1.81 7.05-3.25 9.12-4.7 12.92-12.92 12.92-18.52 0-0.63-0.63-0.99-1.26-0.63-2.44 1.54-4.97 2.44-7.32 3.07 1.08-2.08 2.08-4.16 2.98-6.32 2.08-1.17 4.52-2.98 7.59-5.33 8.13-6.32 10.39-15.18 9.3-20.6-0.09-0.72-0.81-0.9-1.36-0.45-2.35 2.17-4.88 3.52-7.23 4.52 0.9-2.8 1.72-5.6 2.35-8.49 1.99-1.54 4.34-3.7 7.14-6.68 7.05-7.5 7.95-16.53 6.23-21.77-0.27-0.63-1.08-0.72-1.44-0.18-2.35 2.8-5.06 4.7-7.5 6.14 0.45-3.16 0.81-6.41 1.08-9.66 1.99-1.81 4.34-4.61 7.32-8.67 6.14-8.31 5.87-17.34 3.43-22.4-0.27-0.54-1.08-0.54-1.45 0-2.53 4.06-5.78 6.68-8.58 8.49 0-3.16-0.18-6.41-0.36-9.58 2.17-1.81 4.79-5.42 8.4-11.65 5.06-8.94 3.79-17.98 0.81-22.67-0.36-0.54-1.17-0.45-1.45 0.18-2.8 5.96-7.32 9.3-10.3 11.65-0.54-3.16-1.08-6.32-1.81-9.48 2.62-0.45 5.6-4.07 10.03-14.45 3.97-9.39 1.63-18.25-1.9-22.58-0.45-0.45-1.17-0.27-1.35 0.36-2.35 6.87-7.05 10.84-9.67 13.46-0.27-2.98-0.72-5.87-1.26-8.85 2.26-1.36 4.61-5.51 7.32-15.45 2.71-9.76-0.72-18.25-4.79-22.04l-0.99 0.54-0.54 0.27c-1.36 6.23-4.7 10.48-6.96 13.46-0.72-2.17-1.54-4.25-2.26-6.14-0.45-0.9-0.81-1.81-1.17-2.62 1.08-0.45 2.17-0.9 3.25-1.35 2.53-1.08 4.97-2.17 7.14-3.34 0-0.09 0.09-0.27 0.09-0.36 0.18-0.63 0.9-0.99 1.36-0.54l0.09 0.09 12.83-6.78c8.94-4.97 17.8-9.67 26.74-13.73 8.76-4.07 18.25-7.59 26.65-9.03 8.31-1.26 18.16 0.36 26.29 3.61l0.72 0.27c2.71 1.08 5.96 0.09 7.68-2.44 1.9-2.98 1.08-6.87-1.9-8.85-10.12-6.59-21.05-10.21-33.51-10.84-12.29-0.09-23.03 2.17-33.78 4.88-10.66 2.71-20.87 6.32-30.8 10.03l-0.27 0.09-13.55 5.33-0.63 0.27c-0.9 0.36-1.81 0.63-2.62 0.99-3.61 1.26-6.68 2.26-10.21 3.25-4.97 1.26-10.03 2.17-15.18 2.89-5.96 0.9-12.01 1.45-18.43 1.9 1.72-1.9 3.34-3.88 4.88-5.87 6.59-8.58 12.65-17.25 18.34-26.38 1.63-2.53 1.08-5.87-1.17-7.77-2.62-2.17-6.32-1.81-8.49 0.72l-0.09 0.18c-6.41 7.77-13.46 15.45-20.6 22.58-3.61 3.52-7.23 7.05-11.02 10.12-3.97 3.52-6.77 5.06-10.75 7.05-0.81 0.27-1.63 0.63-2.44 0.81 2.53-4.7 6.32-9.21 11.11-12.38 0.63-0.45-19.06 0.45-30.53 7.41-2.53 1.54-4.61 2.98-6.23 4.34-0.54-0.27-1.08-0.45-1.54-0.63 2.44-4.52 5.78-8.85 9.85-12.19 0.45-0.36-11.74 1.35-21.68 6.96-25.47-12.28-52.66-29.99-56.73-30.71-6.59-1.35-14.18 5.33-18.07 7.32-3.97 1.9-15.18 4.06-28.36 0-14.36-4.52-54.56-47.42-62.15-47.42-5.78 0-21.05 12.65-31.8 28.36-8.31 12.1-9.03 33.42-8.94 42.37 0.09 1.72 1.9 2.89 3.43 1.99 4.97-2.71 15.18-7.23 29.45-7.23 20.6 0 47.7 21.14 63.14 35.23 5.15 4.79 6.78 11.38 7.77 16.44 0.45 2.44-0.99 6.23-3.43 6.41l-9.48 0.81c-10.48-4.61-22.31-10.48-28-15.72-10.21-9.21-14.63-14.18-15.63-15.18 0.99 2.08 9.12 17.07 28.09 28.18 2.08 1.26 4.16 2.35 6.14 3.43l-1.08 0.09c-24.48 1.9-79.58-27.1-89.52-29.9-9.85-2.71-14.09 34.24-13.46 36.86 0.45 1.81 5.15 21.95 29.63 29.72 3.43 1.08 6.77 2.08 9.94 2.98 3.52 13.55 11.56 18.88 11.56 18.88s-1.54-7.77-1.72-16.35c0.45 0.09 0.9 0.18 1.36 0.36 9.3 14 20.87 15.99 20.87 15.99s-4.34-6.05-7.86-13.46c0.45 0.09 0.9 0.18 1.35 0.18 4.7 12.19 12.65 16.89 13.73 17.43-0.27-0.99-2.44-8.04-3.61-15.99 10.39 0.99 15.9 0.45 16.35 0.54 0.63 0.09 1.63 0.36 2.89 0.72h0.09c8.67 11.02 18.34 12.74 18.34 12.74s-2.62-3.79-5.51-9.03c1.99 0.54 3.97 1.17 6.14 1.81 9.39 13.55 20.6 15.54 20.6 15.54s-3.52-4.97-6.78-11.47c0.9 0.27 1.81 0.54 2.8 0.9 4.61 12.28 11.74 17.16 12.74 17.79-0.18-0.9-1.99-7.32-3.07-14.99 1.08 0.36 2.17 0.63 3.16 0.99 0.09 0.45 0.27 0.99 0.36 1.54 4.15 17.16 13.55 23.67 14.72 24.39-0.27-1.17-3.34-12.19-3.97-22.76 0.54 0.18 1.08 0.27 1.54 0.45 4.43 9.76 10.21 13.82 11.11 14.36-0.18-0.81-1.54-5.78-2.53-12.01 1.54 0.45 3.07 0.81 4.43 1.17 5.51 1.45 15.99 3.43 28.91 5.78-7.68 12.74-18.16 23.76-29.09 34.24-22.13 21.32-47.79 38.93-69.47 61.61-5.15 5.87-10.3 12.1-12.65 20.05-1.72 7.95-0.81 16.26 2.8 23.49 3.7 7.14 10.21 12.47 17.25 15.99 7.05 3.43 14.63 5.6 22.4 6.5 0.36 0 0.72-0.27 0.72-0.54 0.09-0.36-0.18-0.72-0.54-0.81h-0.09c-14.72-2.17-30.71-8.58-37.67-22.22-3.34-6.59-3.88-14.63-2.26-21.68 2.17-7.05 7.23-13.01 12.47-18.52 21.59-21.77 47.61-39.02 70.55-60.16 11.47-10.48 22.58-21.77 31.07-35.23 0.27-0.45 0.63-0.99 0.9-1.54 4.97 0.9 10.12 1.81 15.54 2.8 3.97 13.73 9.03 27.46 3.34 44.17-7.32 20.96-28.82 37.31-41.46 55.19-37.94 53.75-42.37 117.52-23.03 176.78-12.65-0.54-25.56-0.09-30.08 3.34-7.77 5.87-10.84 40.02-4.79 61.43 0.54 1.72 1.17 3.79 1.9 6.05-7.77-5.87-9.58-16.71-19.96-21.23-11.74-5.06-29.63 3.7-29.63 3.7s12.1 0.72 22.22 5.24c11.29 4.97 10.84 22.04 10.84 22.04s-4.43-4.61-10.21-6.68c-10.21-3.79-25.11 0.54-25.11 0.54s10.3 3.61 17.8 7.59c9.21 5.06 5.6 10.66 14.09 16.89 9.94 7.14 18.7 4.52 32.61 9.48 4.07 1.44 13.73 16.44 13.73 16.44s3.79-6.59 4.7-14.45c1.17-10.21-2.26-17.7-3.43-25.2 0.45-8.85 0.81-22.58-0.54-31.26-0.63-4.52 19.33-0.99 31.8 1.63 21.14 34.06 49.95 56.82 82.56 69.74-9.76-19.42-19.24-37.49-4.7-52.03 0.36-0.27 0.72-0.63 0.99-0.9-14.36 15.18-2.98 34.05 7.14 54.38 0.18 0.09 0.27 0.09 0.45 0.18 3.61 7.14 7.05 14.54 9.12 21.95 1.08 3.88 1.44 8.49 1.54 12.92h-0.36c-6.41 0.36-13.37 0.99-17.43 0.54-14.09-1.81-19.87-15.27-32.52-20.14-0.9-0.36-1.72-0.63-2.62-0.9s-1.9-0.45-2.98-0.63c-15.18-2.35-33.06 12.29-35.68 14.54 0 0-0.09 0.09-0.18 0.09l-0.18 0.18s1.63-0.36 4.25-0.72c0.36-0.09 0.72-0.18 1.17-0.18 1.63-0.18 3.52-0.45 5.69-0.54 3.79-0.36 8.31-0.45 12.92-0.09 1.72 0.09 3.52 0.27 5.24 0.54 1.99 0.27 3.79 0.9 5.51 1.81 0.63 0.36 1.26 0.72 1.9 1.08 10.12 6.14 13.91 20.6 14.09 21.5-0.18 0-0.27-0.09-0.45-0.18-0.54-0.36-1.36-0.81-2.53-1.17-0.63-0.27-1.26-0.54-1.9-0.81-2.71-1.17-6.32-2.35-10.21-2.71-13.28-1.26-29.45 8.04-31.25 9.12h-0.09l-0.09 0.09s0.36 0 0.99 0.09c0.36 0 0.81 0 1.35 0.09 0.27 0 0.54 0 0.9 0.09 0.54 0 1.17 0.09 1.81 0.18 1.35 0.18 2.98 0.36 4.61 0.63 1.72 0.18 3.52 0.45 5.42 0.72 0.72 0.18 1.44 0.27 2.26 0.45 1.26 0.18 2.62 0.45 3.88 0.63l3.79 0.81c13.28 3.25 10.57 11.74 23.4 16.71 1.26 0.45 2.53 0.9 3.88 1.17 2.8 0.72 5.78 1.08 8.94 1.26 5.78 0.36 11.83 0 17.16-0.72 0.09 0 0.18-0.09 0.27 0 1.54-0.27 2.98-0.45 4.34-0.63 0.09 0 0.18-0.09 0.27 0 0.81-0.09 1.54-0.27 2.26-0.36 3.7-0.63 6.59-1.26 7.95-1.63 0.18-0.09 0.27-0.09 0.36-0.09h0.18c0.27-0.09 0.36-0.09 0.36-0.09l-0.45 19.69c1.45-0.9 7.05-4.61 11.65-10.48 5.15-6.5 6.5-14.54 4.34-24.3-1.45-6.5-6.5-15.72-5.87-21.59 0.81-1.9 1.81-3.88 2.98-6.05 4.43-7.77 10.84-14.9 17.8-22.22l0.27 0.09c107.04 9.94 227.18-64.86 239.65-181.02 4.61-42.73-7.68-85.64-18.16-126.55-6.05-23.67-35.05-93.58-10.93-113.19 22.76-18.52 65.76 51.76 89.07 71.99 12.29 10.66 27.1 18.43 42.82 22.76 3.16 3.52 6.14 7.05 8.49 10.93 1.26 2.08 2.26 4.79 2.98 7.41-3.97 1.44-8.04 2.98-10.57 3.34-9.85 1.54-15.99-7.86-26.47-6.68-9.76 1.17-18.34 13.64-19.15 14.9 0.99-0.45 9.21-4.52 17.61-5.42 9.94-1.17 16.8 11.11 16.8 11.11s-4.97-1.35-9.94-0.45c-8.67 1.54-17.34 10.84-17.34 10.84s8.76-1.72 15.63-1.99c8.58-0.27 8.31 5.33 16.89 6.14 11.11 1.08 27.46-8.31 27.46-8.31l3.07 12.01s3.34-3.52 5.42-8.4c2.08-4.79 1.44-9.85-1.45-15.36-1.99-3.7-6.78-8.58-7.14-12.19 0.09-1.17 0.36-2.53 0.72-3.97 0.81-3.34 2.17-6.59 3.79-9.94 20.51 0.54 41.19-4.61 59.26-16.35 0.99-0.63 2.08-1.35 2.98-1.99 5.42 5.69 10.93 10.93 13.82 11.47 6.78 1.26 26.38-12.47 34.96-25.47 0.63-0.99 1.35-2.17 2.17-3.43 0.99 7.05-4.43 13.19-2.08 21.05 2.62 8.58 15.45 14.18 15.45 14.18s-5.06-6.78-7.32-14.27c-2.44-8.22 6.77-15.81 6.77-15.81s-0.36 4.43 1.08 8.49c2.71 7.14 11.74 13.19 11.74 13.19s-2.78-7.15-3.96-13.02zM305.11 338.98c-5.24 0.46-9.86-3.41-10.33-8.65-0.46-5.24 3.41-9.86 8.65-10.33 5.24-0.46 9.86 3.41 10.33 8.65 0.46 5.24-3.41 9.87-8.65 10.33z" fill="#d81e06" p-id="3948"></path></svg>