<?xml version="1.0" standalone="no"?><!DOCTYPE svg PUBLIC "-//W3C//DTD SVG 1.1//EN" "http://www.w3.org/Graphics/SVG/1.1/DTD/svg11.dtd"><svg t="1770134087297" class="icon" viewBox="0 0 1024 1024" version="1.1" xmlns="http://www.w3.org/2000/svg" p-id="14372" xmlns:xlink="http://www.w3.org/1999/xlink" width="200" height="200"><path d="M236.63 712.5c-7.93 4.92-16.49 8.37-22.4 14.41-5.79 5.92-12.28 14.45-12.33 21.88-0.07 10.53 9.5 17.38 19.84 20.16 9.3 2.5 19.17 2.98 28.31 5.89 4.43 1.41 10.86 6.16 11.04 9.68 1.11 21.19 0.98 42.47 0.59 63.71-0.13 7.01-4.46 10.93-12.23 9.45-2.75-0.52-5.64-0.25-8.43-0.62-17.05-2.26-17.4-2.88-14.97-19.44 1.43-9.8 2.46-19.65 3.67-29.48-1.28-0.3-2.56-0.59-3.84-0.89-1.92 6.49-3.7 13.01-5.79 19.44-1.49 4.58-3.39 9.03-5.11 13.54-3.5 9.15-8.97 10.01-16.89 4.75-31.25-20.75-57.62-46.44-78.8-77.36-7.27-10.61-9.06-22.24-3.76-34.44 13.79-31.72 38.59-55.23 60.59-80.8 1.22-1.42 6.75-1.57 7.95-0.23 17.56 19.7 34.75 39.76 52.56 60.35z" fill="#d81e06" p-id="14373"></path><path d="M945.68 487.28c-32.75-67.17-121.67-91.67-183.19-49.42-9.93 6.88-18.7 15.51-27.9 23.26-10.58-6.96-20.58-14.85-31.74-20.58-56.16-28.99-113.77-24.78-171.16-4.78-25.87 8.99-35.8 17.83-76.67 27.17-30.58 6.96-53.84 10.72-95.36-4.35-28.26-11.23-39.35-25.8-37.61-60.36 0.36-8.41 1.16-21.67 1.59-28.62-4.57-5.72-8.62-11.96-12.1-18.77-1.96-3.84-3.77-7.75-5.65-11.81 1.45 2.61 2.9 5.22 4.42 7.75 23.91 40 67.46 60.07 112.82 49.78 15.36-3.48 29.71-11.81 44.13-18.84 4.2-2.03 8.33-3.55 12.46-4.42 1.16-0.22 2.39-0.43 3.55-0.51 3.04-0.36 6.01-0.22 9.06 0.36 3.7 0.65 7.39 2.03 11.16 4.2 9.71 5.65 18.48 3.48 26.81-3.62 3.19-2.68 6.88-5.07 10.72-6.52 15.58-5.94 22.17-18.26 22.46-33.7 0.36-17.17 1.38-35.43-16.88-46.09-17.17-10-34.71-19.49-51.52-30.07-14.93-9.28-31.16-17.68-43.12-30.07-11.16-11.52-21.3-22.32-37.03-27.17-17.17-5.29-34.2-11.38-53.77-17.97 37.25-20.36 39.42-52.54 36.09-89.85-10.36 5.87-18.19 10.8-26.45 14.78-14.57 7.17-24.78 16.88-30.65 33.12-4.06 11.38-14.13 20.58-21.45 30.72-1.67-0.94-3.41-1.88-5.07-2.83 21.16-25.94 30.29-55.36 27.68-89.2-27.17 16.16-52.97 33.62-78.69 51.09-11.52 7.9-18.48 18.26-18.33 32.83 0.07 7.03-2.75 11.3-10.58 13.26-50.43 12.32-91.3 39.85-121.52 81.88-11.3 15.58-19.35 33.62-28.91 50.51 1.23 0.87 2.46 1.74 3.7 2.61 6.01-4.2 12.03-8.41 18.04-12.68 0.8 0.72 1.52 1.45 2.25 2.1-17.97 27.54-27.39 58.04-32.83 89.78-5.43 31.88-7.03 63.77 2.1 98.69 5.14-10.22 8.77-17.32 12.39-24.42 0.65 0.29 1.3 0.65 2.03 0.94 0 17.46-2.03 35.29 0.51 52.46 2.54 17.32 8.48 34.42 15 50.87 7.61 19.42 22.32 35.43 33.04 39.2-0.8-1.96-1.16-3.48-1.96-4.85-4.49-7.61-9.2-17.17 0-22.39 9.85-5.65 11.09 6.88 15.65 11.96 0.87 0.94 1.3 2.25 1.88 3.33 25.87 51.52 62.68 94.27 106.38 131.23 11.09 9.35 18.99 19.78 19.64 33.91 1.38 29.49 2.17 58.98 1.96 88.55-0.07 10.8-2.46 21.96-5.94 32.25-7.46 22.1-8.04 21.88 15.07 26.23 2.9 0.58 5.87 0.94 8.77 1.38 8.26 1.38 7.83 2.68 16.09 3.99-18.84 2.68-28.62 2.9-47.1 2.68-14.42-0.07-10.07 12.25-12.61 19.49-2.61 7.39 2.54 11.52 9.35 11.59 29.93 0.29 59.78 0.29 89.71 0 7.75-0.07 10.36-5.22 10.94-12.75 0.65-9.64 1.16-19.71 4.57-28.62 4.35-11.38 4.13-22.1 1.45-33.41-11.67-50.43 0.07-95.43 31.74-135.87 5.65-7.25 12.03-10.29 21.3-11.38 46.88-5.22 83.26-11.88 95.51-14.2-4.64-31.01-0.36-59.27 14.42-85.87-15.29 32.97-16.09 68.69-4.86 106.3 11.3 37.97 34.71 66.45 72.83 80.94 12.25 4.64 24.64 8.91 37.1 12.83 19.42 6.16 22.25 12.46 10.22 28.55-9.57 12.83-20.72 24.49-31.09 36.81-6.16 7.39-6.3 12.61 4.93 14.57 15.07 2.54 30 5.58 45 8.41-7.46 0.94-14.85 1.59-22.32 1.96h-0.15c-2.68 0.14-5.36 0.29-8.04 0.36-7.9 0.22-15.72 0.15-23.55-0.36-0.65-0.07-1.38-0.07-1.96-0.07s-1.16 0.07-1.74 0.07c-0.43 0-0.87 0.07-1.3 0.22-0.36 0-0.72 0.07-1.09 0.15-0.43 0.15-0.87 0.22-1.23 0.36-0.43 0.15-0.72 0.29-1.09 0.43-0.36 0.15-0.72 0.36-1.01 0.51-0.29 0.15-0.65 0.36-0.94 0.58-0.29 0.29-0.51 0.43-0.72 0.72-2.9 2.39-3.91 6.59-4.64 11.81-1.16 9.2 0.07 16.59 11.3 16.74 28.84 0.29 57.68 0.36 86.52 0.07h0.8c9.64-0.07 12.9-5.65 11.52-15.29-2.75-19.13 0.58-37.32 12.97-52.68 7.1-8.84 15.29-16.96 23.33-25.07 15.8-16.09 16.38-29.13 0.94-46.16-9.06-10-18.99-19.35-28.41-29.06-7.75-8.04-11.67-15.65-11.67-23.19 0-0.65 0.07-1.23 0.07-1.81 0.07-0.8 0.22-1.52 0.36-2.32 0.07-0.58 0.22-1.23 0.36-1.81 0-0.07 0-0.07 0.07-0.15 0.14-0.65 0.36-1.3 0.65-2.03 0.22-0.65 0.51-1.3 0.87-2.03 0-0.07 0-0.15 0.07-0.29 0.58-1.23 1.3-2.54 2.17-3.84 0.36-0.58 0.8-1.23 1.3-1.88 0-0.07 0.07-0.07 0.07-0.07s0-0.07 0.07-0.07c1.81-2.46 4.06-5.07 6.88-7.68 8.84-8.41 18.48-16.09 27.17-24.71 16.88-16.67 28.7-34.93 35.87-54.56 0-0.07 0.07-0.22 0.07-0.29 0.65-1.81 1.3-3.7 1.88-5.51 1.16-3.7 2.1-7.46 2.97-11.23 0.07-0.43 0.22-0.87 0.29-1.23 0.36-1.88 0.72-3.7 1.01-5.51 0.36-2.17 0.72-4.28 0.94-6.45 0.22-1.96 0.43-3.91 0.58-5.87 0.22-1.81 0.29-3.55 0.36-5.36 0-0.58 0.07-1.09 0.07-1.59 0.07-1.88 0.14-3.77 0.14-5.58 0-11.52-1.3-23.33-3.7-35.36-4.2-20.87-13.48-40.58-20.8-61.96 9.06-7.39 20.43-7.97 31.88-2.75 23.12 10.43 35 29.85 35.36 54.35 0.29 17.83-2.75 36.16-7.32 53.55-6.59 25.51-10.65 50.65-1.74 76.09 4.57 13.12 11.3 25.29 25.51 33.33v-32.54c6.16 14.35 9.2 27.03 16.38 36.74 6.96 9.49 17.97 15.94 27.25 23.7 1.01-0.72 2.03-1.52 3.04-2.25-14.93-31.67-3.7-58.62 14.2-84.35 6.67-9.78 13.48-19.49 19.71-29.49 28.86-46.31 38.71-94.06 13.64-145.66zM383.8 264.53c0-7.9 6.38-14.35 14.35-14.35 7.9 0 14.35 6.45 14.35 14.35s-6.45 14.35-14.35 14.35c-7.97 0-14.35-6.45-14.35-14.35z" fill="#d81e06" p-id="14374"></path></svg>