<?xml version="1.0" standalone="no"?><!DOCTYPE svg PUBLIC "-//W3C//DTD SVG 1.1//EN" "http://www.w3.org/Graphics/SVG/1.1/DTD/svg11.dtd"><svg t="1770133846946" class="icon" viewBox="0 0 1024 1024" version="1.1" xmlns="http://www.w3.org/2000/svg" p-id="8024" xmlns:xlink="http://www.w3.org/1999/xlink" width="200" height="200"><path d="M234.244 356.221c-25.02-6.636-46.797-15.788-58.808-29.591 0 0-11.147-7.572 2.23-24.865 2.755-3.564 6.459-5.29 10.602-5.787 17.808-17.734 33.35-49.652 44.096-75.983 1.398-5.845 6.318-27.298 6.318-39.816 0-14.602 57.68-55.126 112.853-42.159 55.172 12.971 129.574 55.123 126.23 119.984-3.35 64.849-22.57 73.766-36.78 81.878 0 0 281.719 27.562 296.765 26.748 0 0 12.537 4.05 9.198 17.026-3.345 12.968-32.605 110.249-17.555 161.32 0 0 16.716 55.131 27.581 57.56 0 0 50.997-30.807 107.007 0 56.007 30.809 66.875 138.632 11.7 171.052-55.17 32.425-150.473 1.627-140.44-51.067 10.03-52.7 69.383-55.128 89.451-42.16 0 0 9.197 13.785-22.567 24.321-31.771 10.54-27.59 53.504 20.895 51.081 0 0 71.893-15.408 20.063-108.633 0 0-76.905-50.258-115.36 19.454-38.45 69.715-22.122 214.741-100.316 226.183-55.427 8.108-76.905-28.369-101.984-40.527-25.083-12.171-125.398 35.659-166.356-120.801l-9.195 1.621s-13.922 97.018-104.495 68.911c-41.797-12.967-70.226-48.638-3.346-56.749 66.88-8.107 43.78-15.163 28.423-20.268 0 0-71.055 8.918-59.356-45.396 11.71-54.313 105.334-121.604 162.176-98.099 56.845 23.511 106.173 41.352 121.217 75.397 1.402 3.172 4.186 5.654 8.082 7.55 7.53-35.858 14.618-129.837-95.651-192.482l-4.104 1.703s-114.952-31.356-200.71 74.578l-8.84-8.645 14.49-139.432s-102.546 33.509-105.887-38.916c0.002 0.001 103.525 24.05 132.373-4.991z m32.53-100.268c-4.97-3.521-9.428-6.037-11.784-4.523-3.45 2.216-6.66 5.26-9.627 8.838 20.177 11.724 23.082 4.922 21.411-4.315z m48.817 2.05s-23.434-17.942-49.832-28.662c10.275 16.307 22.25 38.929 22.25 38.929a0.02 0.02 0 0 0-0.007 0.001l0.003 0.003-60.437 45.841c2.174 7.594 9.126 23.762 28.12 17.91 24.522-7.56 18.95-46.461 59.073-54.569-0.01 0 15.774-9.194 0.83-19.453z m414.921 357.238s-26.217-39.045-51.194-52.221c6.093 24.894 8.805 52.027 6.374 81.199z m-64.884-93.278c6.977-1.138 18.417-5.86 19.188-24.558 1.115-27.024 25.64-112.412-104.773-97.282l-3.248 1.347c25.47 22.564 64.808 63.857 88.833 120.493zM323.68 400.128c23.408-5.405 65.764 5.401 72.45 12.963 0 0 1.113-27.024-49.045-36.751-25.42-4.928-61.432-8.748-94.69-15.817l2.186 67.703s45.693-22.693 69.099-28.098z" fill="#d81e06" p-id="8025"></path></svg>