<?xml version="1.0" standalone="no"?><!DOCTYPE svg PUBLIC "-//W3C//DTD SVG 1.1//EN" "http://www.w3.org/Graphics/SVG/1.1/DTD/svg11.dtd"><svg t="1770133642475" class="icon" viewBox="0 0 1024 1024" version="1.1" xmlns="http://www.w3.org/2000/svg" p-id="5565" xmlns:xlink="http://www.w3.org/1999/xlink" width="200" height="200"><path d="M950.81 632.81l-0.75 7.15c-0.96 8.7-4 14.58-7.31 19.97-3.47 5.34-7.37 9.98-11.75 13.99-8.65 8.22-19.54 13.72-30.97 16.44-11.53 2.72-23.33 2.08-34.38-1.6-2.51-1.01-5.13-2.03-7.58-3.15-2.46-1.28-4.91-2.4-7.31-3.84-4.75-2.99-9.5-6.46-13.19-11.05-7.79-9.02-11.27-20.4-12.44-30.75-1.12-10.52-0.85-20.77 0.05-30.81 0.75-10.04 2.35-19.86 3.79-29.69 1.55-9.77 3.26-19.54 5.18-29.21 0.96-4.86 1.87-9.66 2.56-14.42 0.69-4.75 1.71-9.5 2.14-14.26 0.37-4.75 0.91-9.56 1.07-14.26 0.05-4.75 0.27-9.5-0.11-14.2l-0.59-6.94-0.27-3.47-0.64-3.36-1.23-6.67-1.92-6.3c-2.78-8.17-6.99-15.43-12.6-19.7-5.61-4.27-12.28-6.03-19.81-5.61-4.48 0.21-9.34 1.12-13.94 2.62 11.85 22.69 15.75 54.51 11.21 97.17-4.16 38.71-16.98 70.1-37.21 95.04-0.53 16.66 1.44 30.38-1.28 41.59-6.73 27.34-18.37 53.71-21.78 65.51-2.78 9.5-14.79 50.83-26.91 80.67-2.35 5.82-4.7 11.16-7.05 15.8-4.97 4.27-12.12 7.05-20.13 7.21-11.32 0.21-21.09-4.86-25.2-12.28 3.15-4.97 10.68-16.71 17.94-28.62 5.93-9.72 11.75-19.49 15.06-25.79 8.65-16.5 12.6-61.19 7.37-98.4-6.94-24.03-27.92-43.19-35.45-64.87-7.42-21.41-12.07-39.14-14.9-52.11 1.92 11.27 5.71 29.04 13.35 54.35 6.62 21.94 26.8 41.97 32.84 66.26 0 0.21 0 0.43 0.05 0.64-6.94 3.26-14.15 6.3-21.68 9.02-0.64 33.37-3.26 79.82-12.97 114.74-1.66 5.98-4.7 11.21-6.99 15.8-4.97 4.32-12.12 7.05-20.13 7.21-11.37 0.21-21.09-4.86-25.25-12.28 3.2-4.97 21.09-31.45 23.44-44.74 2.56-14.68 4.22-41.86 3.47-69.52-37.85 8.76-81.15 12.65-128.73 12.65-28.83-1.28-55.58-3.9-80.19-7.9 1.23 31.23 2.62 59.42 4.32 67.01 6.51 28.72 11 56.33 11.75 59.53-0.27 0.27-0.53 0.53-0.75 0.8-3.04 2.94-6.67 5.02-10.95 6.03-1.76 0.43-3.63 0.69-5.55 0.75-7.31 0.11-14.58-2.72-20.93-7.47-0.8-7.26-4.11-36.79-8.17-61.03-0.37-2.62-1.87-10.46-2.46-12.92-4.86-20.61-25.36-50.03-40.42-71.28-8.54-3.1-16.71-6.51-24.45-10.25-0.69 15.7-1.44 29.21-1.44 37 0 10.46 0.32 28.83 0.59 46.5 0.43 22.37 0.91 43.57 0.96 46.08-0.27 0.21-0.59 0.43-0.85 0.64-3.26 2.24-6.99 3.79-11.05 4.54-1.66 0.32-3.36 0.48-5.13 0.48-6.62 0-12.65-2.24-17.46-5.98 0.64-5.71 3.2-28.62 4.16-47.46 0.16-2.08 0.21-4 0.27-5.93 0.8-22.32-20.93-82.7-26.8-94.24-12.76-24.88-22-45.17-28.72-61.51-7.85-18.95-12.23-32.62-14.68-41.91-0.05-0.32-0.11-0.59-0.21-0.85-0.21-0.96-0.43-1.98-0.59-2.99l11.91-0.27c13.72-0.27 24.88-11.21 25.63-24.72 25.63-22.8 43.51-65.78 44.85-110.36 7.31-1.71 15.27-4.48 23.49-8.12 21.73-9.56 34.54-32.2 37.53-47.57 89.64 8.17 179.34 46.93 268.29 35.13 60.97-8.06 105.55-2.72 132.14 22.1l3.9-1.5c2.83-1.17 5.61-1.66 8.38-2.35 2.72-0.75 5.66-1.07 8.6-1.39 1.44-0.16 2.88-0.37 4.38-0.48l4.54 0.05c11.96 0.16 25.25 4.7 34.17 13.83 9.08 8.97 13.4 20.29 15.75 30.86 0.48 2.67 1.01 5.34 1.44 8.01l0.64 7.9 0.27 3.95-0.05 3.9-0.16 7.74c-0.96 20.5-5.39 40.26-9.24 59.42-3.9 19.06-7.42 38.28-8.38 57.45-0.69 9.5-0.21 19.01 1.28 27.92 1.55 8.92 4.86 16.87 10.46 22.37 5.45 5.61 13.61 9.24 21.89 11.64 7.79 1.76 16.39 1.6 23.71-1.23 7.42-2.62 13.99-7.58 18.74-13.72 2.51-2.94 4.38-6.41 5.55-9.66 1.28-3.2 1.76-6.78 1.12-7.9-4.65-7.96-1.98-18.15 5.98-22.8 7.9-4.59 18.1-1.92 22.74 5.98a16.74 16.74 0 0 1 2.13 10.25z" fill="#d81e06" p-id="5566"></path><path d="M372.16 352.02c-5.5-12.28-22.96-9.61-42.87-4.16 2.19-3.95 4.06-8.12 5.45-12.49 9.4-29.1-1.71-61.24-26.96-78.27-0.96-0.64-2.24-0.48-2.94 0.43-0.69 0.85-0.59 2.14 0.16 2.94 12.65 12.28 17.19 30.27 11.75 47.04a45.786 45.786 0 0 1-32.41 30.43c-16.23-13.99-38.17-18.53-60.76-18.53-22.58 0-44.26 4.54-60.28 18.42-14.95-3.84-27.28-15.06-32.14-30.33-5.39-16.76-0.91-34.76 11.75-47.04 0.8-0.8 0.85-2.08 0.16-2.94-0.69-0.91-1.98-1.07-2.94-0.43-25.25 17.03-36.36 49.17-26.96 78.27 1.28 3.9 2.83 7.63 4.75 11.16-17.78-4.43-32.84-5.71-37.85 5.5-4.7 11.21 9.18 46.93 38.44 59.16 6.62 2.72 13.13 4.97 19.22 6.57 1.92 44.9 20.77 88.04 47.09 110.52 0.96 13.45 12.33 24.19 26.11 24.19h26.05c13.78 0 25.15-10.73 26.11-24.19 26.11-22.26 44.85-64.92 47.09-109.45 7.31-1.55 15.32-4.22 23.6-7.63 29.25-12.24 43.13-47.96 38.38-59.17z m-202.1 90.21c-5.9 0-10.68-4.78-10.68-10.68s4.78-10.68 10.68-10.68 10.68 4.78 10.68 10.68-4.79 10.68-10.68 10.68z m112.12 0c-5.9 0-10.68-4.78-10.68-10.68s4.78-10.68 10.68-10.68 10.68 4.78 10.68 10.68-4.78 10.68-10.68 10.68z" fill="#d81e06" p-id="5567"></path></svg>