<?xml version="1.0" standalone="no"?><!DOCTYPE svg PUBLIC "-//W3C//DTD SVG 1.1//EN" "http://www.w3.org/Graphics/SVG/1.1/DTD/svg11.dtd"><svg t="1770133536238" class="icon" viewBox="0 0 1024 1024" version="1.1" xmlns="http://www.w3.org/2000/svg" p-id="3520" xmlns:xlink="http://www.w3.org/1999/xlink" width="200" height="200"><path d="M941.8 386.68c-19.03-55.54-53.8-98.73-99.3-129.94 0.22-3.04 1.17-5.78 3.91-7.65 6.82-4.56 14.64-6 23.29-6.95 0.74-0.09 1.43-0.13 2.17-0.17-0.83 4.35-0.13 8.95 1.65 12.82 2.35 5.13 6.21 9.26 10.82 12.21 2.35 1.48 4.56 2.61 7.52 3.52 3.09 1.04 7.47 0.7 10.56-1.56 3.17-2.22 4.82-5.35 5.69-8.34 0.91-3.04 1.04-6.08 0.65-9.08-0.78-5.95-4.04-11.65-8.91-15.34-3.39-2.69-7.52-4.26-11.39-5.13 3.3-1.96 7.08-3.39 10.99-4.48 4.04-1.22 8.6-1.22 13.17-0.96 9.13 0.7 18.25 3 26.64 6.91 0.7 0.3 1.52 0.04 1.91-0.65 0.39-0.7 0.13-1.56-0.61-1.96-8.47-4.61-17.82-7.6-27.46-8.91-4.82-0.56-9.86-0.91-14.99 0.26-4.78 1.09-9.6 2.61-14.08 5.17-1.69 0.96-3.39 2.13-4.91 3.43-3.43-0.26-6.91-0.26-10.39-0.13-10.13 0.56-20.34 2.65-29.99 7.47-4.3 2.13-8.17 5-18.12 5.91-0.52-0.35-1.04-0.61-1.56-0.91-19.38-10.78-52.02-17.34-56.54-18.21-27.73-4.95-57.45-5.69-87.96-1.65-61.67 8.21-115.07 34.77-152.01 71.27l-0.22 0.22c-5.65 6.21-11.17 12.39-16.6 18.47l-0.26 0.26c-15.73 17.47-31.16 34.59-46.98 52.19-1.3 1.43-3.43 1.69-5.08 0.7-25.47-15.34-54.23-17.9-84.26-12.12-0.43 0.09-0.96 0.04-1.39 0.22-28.55 13.43-53.89 8.69-78.96-10.39-8.47-6.48-22.51-8.69-33.68-8-27.51 1.78-54.89 5.91-85.83 9.73-2.96 0.39-4.48 3.78-2.82 6.26 15.77 23.25 28.86 43.15 42.72 62.53 19.82 27.73 20.08 27.38-11.43 42.33-3.09 1.48-4.87 5.65-8.21 10.04-0.26 0.35-0.61 0.65-1 0.91-2.52 1.65-6.74 5.35-11.43 6.13-10.34 1.78-19.38-0.48-27.46-9.34-21.99-24.25-51.93-20.16-65.1 9.47-17.64 39.68-16.99 79.79 2.78 118.9 6 11.95 27.46 23.08 38.33 17.9 14.95-7.08 29.29-4.22 44.15-2.87 3.78 0.39 7.6 0.61 11.52 1.13 3.95 0.52 4.69 5.95 1.04 7.6-4.08 1.83-8.47 3.78-13.38 6-2.69 1.22-3.22 4.87-0.91 6.74 9.82 8 18.34 15.73 28.12 21.34 14.25 8.17 29.64 14.43 44.89 20.73 1.65 0.7 3.48 1.52 5.35 2.48 1.13 0.52 2.26 1.13 3.35 1.78 15.17 8.04 32.46 15.21 51.63 21.42 0.3 0.61 0.61 1.22 0.87 1.83 0.13 0.3 0.26 0.61 0.35 0.91 10 24.55-1.74 102.43-1.74 102.43s12.82 6.78 27.38 4.74c14.56-2.04 25.03-6.91 25.03-6.91s13.86-50.45 24.55-76.48c8.91 2.22 18.08 4.26 27.46 6.13 0.39 31.85-5.74 72.53-5.74 72.53s12.78 6.78 27.33 4.74c14.6-2.04 25.07-6.91 25.07-6.91s9.43-34.37 18.73-60.97c33.03 2.96 67.79 3.35 103.73 0.26 42.63-3.69 83.31-9.65 121.07-17.99-1.09 28.55-5.56 58.36-5.56 58.36s12.82 6.82 27.38 4.74c14.56-2.04 25.03-6.87 25.03-6.87s13.6-49.5 24.25-75.75c13.65-4.56 26.73-9.56 39.11-14.91 2.39 32.42-5.3 83.57-5.3 83.57s12.78 6.82 27.33 4.78c14.56-2.04 25.03-6.91 25.03-6.91s26.94-71.79 39.63-92.69c18.99-31.25 36.76-79.31 45.33-104.25 0.09-0.17 0.13-0.3 0.17-0.48 1.78-5.21 3.17-9.34 4.04-12.08 0.3-0.78 0.57-1.56 0.78-2.35 0.04-0.17 0.13-0.35 0.17-0.48 0.09-0.3 0.13-0.52 0.17-0.65 0.04-0.13 0.09-0.22 0.09-0.22 0.83-3.17 1.69-6.87 2.52-11.04 0.04-0.22 0.04-0.39 0.09-0.57 7.23-36.93 12.45-108.24-3.98-156.22z m-62.58-144.93c1.22 0 2.39 0.04 3.61 0.09 4.39 0.26 7.74 1.04 10.6 3 2.82 1.87 4.78 4.87 5.43 8.26 0.78 3.3-0.26 7.17-1.83 8.34-0.7 0.56-1.48 0.83-2.91 0.52-1.61-0.39-3.69-1.26-5.39-2.22-3.48-1.96-6.48-4.87-8.21-8.3-1.65-3.04-2.17-6.47-1.3-9.69z m-605.85 263.2c-8.89 0-16.1-7.21-16.1-16.1s7.21-16.1 16.1-16.1 16.1 7.21 16.1 16.1-7.21 16.1-16.1 16.1z" fill="#d81e06" p-id="3521"></path></svg>