<?xml version="1.0" standalone="no"?><!DOCTYPE svg PUBLIC "-//W3C//DTD SVG 1.1//EN" "http://www.w3.org/Graphics/SVG/1.1/DTD/svg11.dtd"><svg t="1770214688874" class="icon" viewBox="0 0 1024 1024" version="1.1" xmlns="http://www.w3.org/2000/svg" p-id="31435" xmlns:xlink="http://www.w3.org/1999/xlink" width="200" height="200"><path d="M951.42 602.29c-2.72-23.02-22.8-41.14-45.97-41.67-10.27-0.23-19.7 2.79-27.55 8.15-56.08-84.16-152.4-147.27-292.19-125.9-53.14 8.15-101.98 12.68-166.66 15.25 1.21-7.62 1.96-15.55 2.34-23.85 0.91-20.3-1.58-38.19-6.87-53.74 21.06-21.74 38.87-61.67 62.65-106.73 36.23-68.84 17.36-154.96-34.34-154.81-37.36 1.66-83.11 38.72-100.84 115.71-5.74 24.38-11.1 49.59-13.66 72.61-20.53-4.68-43.4-5.51-67.18-2.57-71.78 8.91-123.04 60.69-156.1 113.75-14.57 23.48-30.8 42.8-30.8 66.73 0 65.14 77.14 84.54 155.64 85.37 11.32 36.08 21.13 73.75 25.14 97.52 7.02 41.82 28.15 81.29 52.54 111.79 4 16.83 8.15 32.91 12.83 47.4-22.8-1.74-36.38 5.74-40.61 21.44-10.57 5.28-15.85 14.19-15.85 26.27 0 20.61 21.51 24.23 64.84 26.64 40.38 2.19 65.59-7.77 74.73-23.55 0-0.08 0.08-0.08 0.08-0.15 4.98-5.28 9.51-11.85 13.51-19.32 63.25 25.66 132.77 34.72 168.63 34.72 19.17 0 38.57-0.23 58.05-0.98 1.36-2.79 3.7-5.13 6.79-7.1 2.72-8.23 9.13-11.25 17.89-11.93-21.14-25.06-33.97-57.29-33.97-92.47 0-79.63 65.07-144.17 145.23-144.17-76.09 4.53-136.47 67.78-136.47 145.08 0 35.48 12.76 68.01 33.97 93.3-8.83 0.68-15.17 3.77-17.96 12-6.11 3.85-9.36 9.59-7.77 16.61 3.17 13.66 13.59 19.17 29.89 20.53 10.64 2.72 24.23 3.55 39.63 3.4 7.77-0.08 14.95-0.23 21.51-0.6h45.97c2.19 0 4.45-0.08 6.64-0.15 77.14-3.47 138.66-67.1 138.66-145.08 0-8.76-0.83-17.29-2.26-25.59v-0.08c4.38-24.68 2.49-53.82-7.17-88.09-1.43-4.98-3.02-10.04-4.76-15.25 20.35-6.79 34.54-27.17 31.82-50.49zM277.06 411.77c-1.81 9.51-9.66 17.36-19.17 19.17-17.21 3.25-32-11.55-28.68-28.76 1.81-9.51 9.59-17.36 19.1-19.17a24.48 24.48 0 0 1 28.75 28.76z" fill="#d81e06" p-id="31436"></path><path d="M324.14 302.62c2.5-23.05 7.93-48.23 13.6-72.62 12.45-53.84 38.52-88.06 65.87-104.4-5.94-18.76-21.25-27.37-52.04-16.69-26.98 7.12-58.03 50.35-66.77 128.9-2.26 20.31-4.38 41.1-5.43 60.63 15.7-0.36 30.78 0.99 44.77 4.18zM305.16 781.01c-5.2-5.3-10.9-12.69-14.16-16.66-1.59-1.94-4.08-5.87-6.74-10.33-0.01-0.02-0.05-0.07-0.06-0.09-0.38-0.63-1.15-0.63-1.47-0.5-0.32 0.12-0.68 0.6-0.47 1.52 0.25 1.08 0.53 2.17 0.76 3.23 4.45 19.02 9.06 37.29 14.27 53.52-22.8-1.74-36.38 5.74-40.61 21.44-10.57 5.28-15.85 14.19-15.85 26.27 0 11.89 7.21 18.11 21.59 21.72-1.17-2.55-1.82-5.45-1.82-8.85 0-12.08 5.28-20.98 15.85-26.27 4.23-15.7 17.81-23.17 40.61-21.44-4.32-13.37-8.18-28.13-11.9-43.56z" fill="#d81e06" p-id="31437"></path></svg>