<?xml version="1.0" standalone="no"?><!DOCTYPE svg PUBLIC "-//W3C//DTD SVG 1.1//EN" "http://www.w3.org/Graphics/SVG/1.1/DTD/svg11.dtd"><svg t="1770133950666" class="icon" viewBox="0 0 1024 1024" version="1.1" xmlns="http://www.w3.org/2000/svg" p-id="10757" xmlns:xlink="http://www.w3.org/1999/xlink" width="200" height="200"><path d="M745 518.2c76.7 319-197.4 320.3-197.4 320.3 355.3-221.6-161.5-516.8-161.5-516.8 124.8-7.2 155.3-64.2 131.1-100.5-26-39-159.7 50.2-159.7 50.2s61-105.9-3.6-122C289.4 133.2 266 296.6 266 296.6c-73.5-7.4-125.9 13.4-154.5 29.6l39.1-54.1-30.1-4.6-10.4 59.5c-15.4 8.9-23.5 16.3-23.5 16.3 8 2.3 15.6 5 22.8 8.1l6.9 61.4 35.2-5.6-39.2-54.5c98.5 43.5 126.9 152.1 126.9 152.1-51.6 1.9-67.2 42.5-72 65.9-0.9 4.6 4.8 7.5 8 4 21.8-24.1 72.9-66.9 92.3 37.8C292.3 747 387.1 782 387.1 782s-63.9-167.9 0.7-203.4c47.3-26 70.6 21.8 70.6 21.8-143.3-62.6-40.4 218-40.4 218-214.6-79.5-187 30.8-187 30.8h228.3l11.7 4.5c36.3 14 74.9 22.4 113.7 22.2C751 875 829 740.7 777.3 499.4c-59.1-275.8 156.2-263.7 156.2-263.7S668.4 199.3 745 518.2zM251.6 362.6c-10.7 0-19.3-8.6-19.3-19.3s8.6-19.3 19.3-19.3c10.7 0 19.3 8.6 19.3 19.3s-8.6 19.3-19.3 19.3z m0 0" p-id="10758" fill="#d81e06"></path></svg>