<?xml version="1.0" standalone="no"?><!DOCTYPE svg PUBLIC "-//W3C//DTD SVG 1.1//EN" "http://www.w3.org/Graphics/SVG/1.1/DTD/svg11.dtd"><svg t="1770132578288" class="icon" viewBox="0 0 1024 1024" version="1.1" xmlns="http://www.w3.org/2000/svg" p-id="22154" xmlns:xlink="http://www.w3.org/1999/xlink" width="200" height="200"><path d="M922.05 777.82c4.79-11.82 9.61-23.62 14.4-35.44h-6.93c1.78-4.14 3.57-8.28 5.38-12.41-11.01 1.25-5.61-6.23-4.02-15.35-2.98 2.23-5.95 4.46-8.93 6.7 9.03-25.56-28.97-34.91-44.9-36.59 21.39 24.45 33.67 40.79 8.9 68.37-17.14 19.09-41.37 32.37-67.35 23.7-76.64-25.58-19.42-134.75 1.27-178.64 30.57-64.86 68.28-131.71 22.3-199.43-41.05-60.45-110.85-66.29-168.13-101.6 0 0-1.68-14.59 17.42-20.31 18.21-5.46 67.6 2.29 67.6 2.29s-47.74-49.65-181.03-64.54c-63.7-7.12-85.17 14.24-111.9 24.78-3.26-11.26-5.45-39.46-19.27-43.38-14.96-4.24-16.63 21.73-33.44 14.19-27.92-12.52-16.39-56.95-39.65-70.76-5.56-3.3-13.26-2.7-19.27-5.1-8.22-3.29-13.88-9.81-21.57-13.59-17.41-8.55-33.14-0.65-51.18-6.33-15.62-4.92-26.19-8.57-39.55 4.2-1.24 1.19-11.27 19.46-13.07 20.05-5.93 1.93-26.12-9.22-31.55-11.12 4.46 6.57 27.77 28.1 23.91 38.04-3.32 8.54-30.55-13.84-36.11-17.41 7.46 15.82 28.51 42.64 14.43 58.47-17.42 19.59-45.94 2.13-65.49 8.84-25.04 8.58-7.71 37.45-5.88 53.63 0.98 8.71-2.15 11.4 2.92 19.89 2.93 4.91 18.17 10.54 19.16 15.11 1.41 6.48-18.62 28.74-22.17 34.76-7.15 12.12-13.54 24.69-18.85 37.73-9.11 22.38-15.07 45.99-17.11 70.08-4.37 51.62 8.71 106.6 32.85 152.25 23.92 45.24 60.6 80.3 106.54 102.66 21.46 10.45 51.24 14.53 66.07 33.84 8.12 10.57 11.69 24.25 19.32 35.18 6.64 9.51 15.69 15.56 22.98 24.33 19.35 23.27 27.14 76.55 9.36 104-8.19 12.64-23.77 13.21-36.68 18.3-4.71 1.86-34.12 12.26-27.25 18.7 3.45 3.24 43.46-10.11 49.26-11.46 1.96 11.11-28.61 20.36-34.63 29.43-11.65 17.54 24.78-7.14 31.63-11.07 13.93-7.99 28.7-19.09 44.59-22.22 18.38-3.61 39.61-0.41 58.26-0.41-7.5-7.41-16.65-11.2-26.85-12.83-8.41-1.35-24.05 4.15-30.8-2.41-15.29-14.85 5.85-20.62 15.86-25.88-16.74-9.81-25.19-57.73-11.64-73.03 17.7-19.98 45.06-2.19 60.54 13.18 14.58 14.49 18.09 34.57 23.99 53.61 3.42 11.03 14.3 30.1 11.5 41.64-5.6 23.05-49.35 17.81-62.1 42.54 13.04-2.66 42.16-14.33 54.09-11.04 20.14 5.55-12.94 11.25-4.92 23.72 20.79-5.88 28.24-19.51 46.02-30.66 18.35-11.5 37.23-8.7 58.23-8.7-20.1-21.19-44.01-10.43-69.59-17.24 2.26-5.39 4.49-10.79 6.69-16.2 1.15-3.98-0.75-5.83-5.7-5.56-3.78-0.6-6.85-2.36-9.21-5.29-2.88-7.67-5.61-15.4-8.2-23.17-4.84-14.35-13.22-31.86-14.73-46.92a19.76 19.76 0 0 1 5.92-5.95c-1.05-5.52-2.12-11.03-3.21-16.53 4.3 2.49 8.61 4.97 12.92 7.44-1.66-8.23-3.3-16.45-4.94-24.68 3.99 2.34 7.99 4.66 12 6.96-2.68-10.05-5.33-20.1-7.98-30.16 4.48 3.88 8.95 7.75 13.42 11.63-2.08-8.6-4.14-17.2-6.19-25.8 13.35 4.21 7.58-3.7 6.12-14.68 3.51 1.83 7.03 3.66 10.55 5.48 5.01-13.69 7.67-32.78 24.39-25.94 15.23 6.23 16.76 38.68 17.47 51.09 12.01-22.68 12.52-47.95 7.68-72.66 16.59 15.51 13.94 36.78 18.83 56.94 11.92-29.53 8.14-59.72-4.63-88.22 28.2 17.28 26.91 46.92 23.3 75.98 4.34-6.88 20.66-40.67 28.44-38.07v36.01c21.08-22.27 30.11-51.4 44.02-78.01-0.98 15.11-6.55 67.8 8.73 26.31 10.43-28.33 20.89-56.65 31.34-84.97-0.44 36.8-8.58 67.03-19.88 101.57 17.33-18.72 34.34-35.05 54.03-51.36 3.95 17.7-11.03 22.19-19.88 33.91l11.94-1.83c-4.15 4.99-8.29 9.99-12.44 14.98 12.28 3.15 1.01 10.04-4.97 17.92 18.36-1.61 0.64 12.5-5.41 21.57 4.2-2.22 8.4-4.47 12.58-6.73-2.57 5.46-5.15 10.92-7.74 16.37 3.87-2.25 7.73-4.51 11.6-6.76-2.51 5.97-5.03 11.95-7.54 17.92 4.2-3.47 8.39-6.94 12.58-10.41-3.4 9.49-6.79 18.98-10.18 28.47 3.77-4.14 7.54-8.28 11.33-12.41-1.4 6.61-2.8 13.21-4.19 19.81l8.86-7.54c-1.57 10.58-3.15 21.17-4.73 31.75 3.77 0.19 7.01-6.92 8.89-9.57 0.4 6.47 0.8 12.94 1.22 19.41l7.44-13.02c0.43 7.82 0.89 15.64 1.32 23.47 1.96-4.23 3.94-8.46 5.92-12.68 1.46 7.87 2.91 15.74 4.4 23.6 0.6-5.42 1.21-10.84 1.83-16.26 11.23-1.61 1.32 24.17 11.43 22.72l-2.1-19.68c5.12-0.61 11.41 16.46 13.25 19.92 7.47-2.99-7.45-14.7 0.1-18.26 4.36 6.18 8.71 12.37 13.05 18.56-0.79-5.55-1.59-11.09-2.4-16.64 14.96 13.5 89.35 6.67 80.91-5.38 11.83-4.26 16.93-7.45 25.26-14.21 6.94-5.63 21.64-0.02 7.03-9.66 6.68-2.49 13.37-4.97 20.05-7.44-2.56-0.8-5.06-1.6-7.56-2.4z m-592.54-533.9c21.15 44.55 61.22 43.54 102.59 29.86-29.45 45.49-30.81 97.22-12.58 147.25-76.04-3.68-113.15-116.12-90.01-177.11z m-64.08-44.32c-5.28 0-9.57-4.28-9.57-9.57 0-5.28 4.28-9.57 9.57-9.57 5.28 0 9.57 4.28 9.57 9.57 0 5.28-4.29 9.57-9.57 9.57z m228.23 329.76c-0.72 2.76-2.61 5.16-4.94 6.72-4.7 3.18-10.43 3.69-15.13 5.28-2.63 0.86-2.85 1.89-2.19 4.55 0.61 2.34 1.61 4.76 2.67 7.15 2.11 4.8 4.44 9.61 6.31 14.73 1.78 5.11 3.5 10.6 2.63 16.82-0.05 1.55-0.87 3.07-1.4 4.6-0.77 1.41-1.82 2.82-2.92 4-2.46 2.21-5.28 3.7-8.22 4.5-5.94 1.64-11.89 1.06-17.37-0.14-2.75-0.65-5.43-1.44-8.03-2.37 2.8 3.96 5.13 8.46 5.35 14.04 0.44 7.6-4.97 14.27-10.83 17.46-5.95 3.4-12.44 4.72-18.81 5.46-12.79 1.26-25.56-0.12-37.82-3.45-12.53-3.68-23.1-11.34-32.33-19.82-18.34-17.35-32.38-38.28-45.03-59.69a556.093 556.093 0 0 1-32.98-66.93c-0.11-0.26 0.02-0.56 0.28-0.67 0.26-0.11 0.56 0.03 0.67 0.28a553.733 553.733 0 0 0 34.12 66.07c12.96 21.05 27.35 41.56 45.52 58.1 9.13 8.09 19.42 15.15 30.95 18.28 11.73 3.03 24.09 4.18 36.04 2.82 5.91-0.79 11.85-2.21 16.66-5.13 4.75-2.86 8.19-7.41 7.76-12.61-0.3-4.91-3.97-9.93-7.86-14.16-3.98-4.28-8.78-8.18-13.64-11.34-0.01-0.01-0.02-0.02-0.04-0.02l-0.26-0.19a3.898 3.898 0 0 1-0.8-5.46 3.898 3.898 0 0 1 5.46-0.8l0.07 0.05c0.01 0.01 0.02 0.02 0.04 0.03 8.32 5.54 17.64 10.63 27.17 13.2 4.76 1.24 9.67 1.77 14.02 0.71 4.42-1.12 7.94-3.53 8.69-7.88 0.93-4.28-0.09-9.43-1.51-14.3-1.44-4.94-3.4-9.83-5.22-14.85-0.91-2.51-1.8-5.07-2.33-7.89-0.22-1.39-0.44-3.03 0.35-4.79 1.04-1.93 2.73-2.29 4.02-2.8 5.35-1.48 10.67-1.6 14.95-4.34 2.08-1.32 3.71-3.26 4.42-5.65 0.57-2.38 0.81-5.02 0.21-7.5-0.99-5-3.71-9.66-7.18-13.53-6.91-7.88-16.08-13.56-25.65-17.83-19.35-8.5-41.15-10.51-62.01-7.59-0.22 0.03-0.42-0.11-0.45-0.33s0.11-0.42 0.33-0.45h0.01c20.99-2.79 42.89-0.92 62.52 7.45 9.71 4.24 19.04 9.9 26.2 17.92 3.59 3.95 6.49 8.74 7.6 14.11 0.63 2.64 0.53 5.44-0.07 8.18z" fill="#d81e06" p-id="22155"></path></svg>