<?xml version="1.0" standalone="no"?><!DOCTYPE svg PUBLIC "-//W3C//DTD SVG 1.1//EN" "http://www.w3.org/Graphics/SVG/1.1/DTD/svg11.dtd"><svg t="1770133548634" class="icon" viewBox="0 0 1024 1024" version="1.1" xmlns="http://www.w3.org/2000/svg" p-id="3733" xmlns:xlink="http://www.w3.org/1999/xlink" width="200" height="200"><path d="M785.63 625.47c-10.94-10.83-28.66-29.71-42.8-44.94-0.81-0.89-0.98-2.17-0.41-3.25 19.83-38.08 29.33-79.69 35.81-114.09 12.84-67.83-23.4-159.13-31.07-177.45-0.33-0.76-0.95-1.35-1.73-1.6-0.03 0-0.05-0.03-0.08-0.03v-0.22c11.7 4.23 27.28 8.69 45.91 11.27 43.04 6.01 72.65 0 72.65 0s-19.1-10.51-47.78-45.89-39.06-40.14-66.8-40.63c-11.05-0.19-21.32 1.22-28.22 2.82 0.57-20.21 5.53-64.25 36.7-82.7 41.09-24.32 83.13 16.06 56.94 63.84-8.69 15.85-19.67 23.54-23.86 26.95-0.73 0.57-0.14 1.73 0.76 1.46 14.11-3.95 60.92-11.4 67.47-72.13 6.93-64.28-69.86-97.73-125.09-71.45-33.75 16.09-48.38 39.06-54.69 56.99-4.42-34.29-21.29-62.92-64.63-84-57.04-27.71-106.42 7.18-105.94 64.06 0.38 46.97 31.91 69.72 42.91 76.25 1.11 0.65 2.38-0.54 1.81-1.71-4.2-8.37-13.98-29.23-15.57-44.91-5.09-50 20.72-68.53 62.76-33.45 44.26 36.89 37.79 73.41 36.78 77.9-0.08 0.33-0.03 0.62 0.14 0.92 0.11 0.16 0.22 0.38 0.38 0.62a91.33 91.33 0 0 0-25.43 7.67l-2.3 1.11s-13.06-16.06-34.56-12.7c-21.51 3.33-43.01 22.46-59.75 28.2-16.71 5.74-20.53 7.64-20.53 7.64s35.35 24.87 67.39 21.51c1.57-0.16 3.09-0.35 4.58-0.57-5.61 12-8.72 25.35-8.72 39.47 0 7.23 0.81 14.27 2.38 21.05-5.12 25.22-26.49 38.65-28.31 66.69-1.98 30.42 27.33 51.38 52.74 47.46 23.84-3.66 42.53-28.36 60.13-42.04 2.11 0.14 4.25 0.22 6.42 0.22 24.51 0 46.81-9.45 63.49-24.89-16.36 15.95-38.57 25.98-63.22 26.49-1.79 0.03-3.58 0-5.34-0.05-0.7 0-1.35 0.22-1.9 0.65-17.09 14.14-35.08 38.49-58.45 42.58-7.5 1.33-15.39 0.46-22.75-2.22-1.08-0.41-2.25-0.16-3.03 0.65-9.97 10.27-21.67 20.61-34.97 29.44-45.83 30.45-180.02 15.25-184.38 14.74h-0.22c-114.63-2.93-125.14-59.81-126.01-66.9v-0.08c-0.08-0.43-0.08-0.65-0.08-0.65s-46.56 22.64-52.28 75.84c-4.66 43.8 12.43 66.39 20.37 74.35 0.7 0.7 0.95 1.71 0.7 2.65-4.88 19.72-5.31 41.2 3.47 62.25 28.68 68.85 51.14 87.95 47.32 113.3-3.82 25.33-21.99 32.5-22.94 42.07-0.95 9.56 24.38 26.27 26.3 55.91 1.9 29.66 8.59 65.98 15.76 71.7 3.87 3.11 6.5 4.52 8.1 5.17 1.16 0.49 1.87 1.68 1.73 2.93-0.54 5.2-1.57 15.98-5.53 22.02-3.93 6.01 0.6 16.39 4.04 17.82 7.75 3.22 17.61 3.22 22.51 2.98 1.68-0.08 2.9-1.57 2.68-3.22-0.68-5.17-1.73-15.44 0.41-16.14 2.38-0.79 6.58 13.16 7.96 17.99 0.3 1.03 1.16 1.81 2.22 2.03 2.68 0.49 7.64 0.92 9.24-2.17 2.57-5.01-5.31-15.68-7.72-18.74-0.43-0.57-0.65-1.22-0.6-1.92 0.16-2.79 0.22-10.59-3.77-16.6-3.25-4.9-6.15-9.26-7.75-11.7-0.76-1.14-0.62-2.6 0.35-3.58 2.65-2.65 7.42-8.29 7.23-14.52-0.24-8.61-9.32-10.29-11.48-31.31-2.14-21.05-7.15-46.13-0.95-62.38s49.6-71.32 67.39-86.52c15.49-13.22 51.84-20.8 64.76-65.47-11.95 47.92-49.84 55.53-65.74 69.13-3.52 3.01-8.07 7.58-13.11 13.11-1.06 1.14-0.98 2.95 0.16 4.01 1.71 1.6 3.25 3.09 4.55 4.39 10.4 10.51 7.77 31.85 7.77 42.39 0 10.51-8.91 28.98-7.64 37.6 1.27 8.61 21.99 30.91 28.68 40.47 6.12 8.72 35.59 47.75 40.68 54.47 0.49 0.62 0.65 1.41 0.51 2.19-0.98 5.36-4.82 26.76-4.55 30.66 0.33 4.44 6.69 3.17 16.58 3.71 6.26 0.33 13.44 0.24 17.85 0.14 1.98-0.05 3.3-2.06 2.57-3.93-2.38-5.88-6.5-16.69-5.15-17.15 1.76-0.57 13.43 17.39 17.44 19.83 1.46 0.89 6.04 2.06 8.51-0.08 2.63-2.3 1.27-6.66 0.57-7.39l-25.52-26.57c-0.62-0.65-0.89-1.54-0.76-2.44 0.62-3.77 2-14.3-0.7-19.34-3.36-6.23-8.13-7.64-22.48-27.25-14.33-19.61-13.38-56.88-6.2-70.75 7.15-13.87 29.63-33.45 44.94-46.83 5.66-4.96 8.56-11.92 10-18.74 0.27-1.33 1.38-2.28 2.71-2.28 19.83-0.05 40.44-3.39 64.47-8.78 1.08-0.24 2.25 0.19 2.93 1.08 19.1 25.81 40.93 48.81 46.07 54.53 9.1 10.02 4.79 18.15 8.13 30.58 3.36 12.43 11.97 20.56 17.69 38.49 5.74 17.93-1.65 64.03 2.17 70.75 2.82 4.93 9.05 8.32 12.11 9.75 1.06 0.49 1.71 1.6 1.63 2.76l-2.44 37.22c-0.05 0.79 0.22 1.54 0.73 2.11 1.49 1.6 4.9 4.69 9.48 5.04 3.47 0.24 6.58-0.08 8.64-0.43 1.52-0.24 2.55-1.57 2.41-3.06-0.6-6.28-1.9-22.16 0.24-23.29 2.68-1.44 12.13 25.57 12.13 25.57s1.44 4.52 9.56 2.41c9.21-2.41 5.17-8.69 5.17-8.69s-14.98-28.85-17.2-37.92c-2.19-9.07 3.17-11.24 3.66-17.69 0.46-6.45-7.02-29.23-8.94-63-1.9-33.78 7.67-54.82 8.29-63.11 0.65-8.29-6.37-18.47-11.46-38.25-5.12-19.75 6.99-73.27 15.93-99.41 2.41-7.04 2.63-14.38 1.65-21.32 1.35 7.23 1.49 14.98-0.76 22.51-3.14 10.51-6.64 25.38-9.34 40.68-0.33 1.79 1.08 3.44 2.9 3.36 5.25-0.19 10.97-1.27 16.5-3.98 18.69-9.07 17.25-10.97 22.05-10.51 4.77 0.49 12.41 26.3 52.09 32.5 39.68 6.23 43.99 2.87 45.89 11.95 1.92 9.1-13.38 33.94-39.68 37.76-26.27 3.85-26.52 3.6-28.66 7.91-2.17 4.28 3.09 15.52-1.92 18.39s-16.74-1.44-26.06 2.87c-6.88 3.2-12.49 6.12-14.92 7.42-0.84 0.43-1.38 1.27-1.49 2.22-0.38 3.66-1.25 12.95-0.3 16.17 1.19 4.06 5.72 3.82 5.72 3.82s14.36-5.25 14.82-3.33c0.49 1.9-20.04 6.69-18.12 20.53 0.65 4.85 3.9 7.42 7.31 7.96 0.43 0.08 2.46-0.46 2.74-0.79 2.28-2.79 13.62-16.01 22.67-16.01 10.02 0 14.82-2.17 20.78-7.64 5.99-5.5 30.12-27.49 55.69-41.85 25.57-14.33 47.81-23.65 55.69-28.9s9.81-17.44 9.81-25.35c0-7.88 1.68-23.89-8.37-33.7-10.05-9.8-38.25-23.21-58.81-43.52zM674.68 309.82c-6.85 0-12.41-5.56-12.41-12.41S667.83 285 674.68 285s12.41 5.56 12.41 12.41c0 6.85-5.56 12.41-12.41 12.41z" fill="#d81e06" p-id="3734"></path></svg>