<?xml version="1.0" standalone="no"?><!DOCTYPE svg PUBLIC "-//W3C//DTD SVG 1.1//EN" "http://www.w3.org/Graphics/SVG/1.1/DTD/svg11.dtd"><svg t="1770133819587" class="icon" viewBox="0 0 1024 1024" version="1.1" xmlns="http://www.w3.org/2000/svg" p-id="7087" xmlns:xlink="http://www.w3.org/1999/xlink" width="200" height="200"><path d="M941.96 543.08c-4.96-6.78-10.86-12.88-17.77-17.67-15.29-10.6-34.07-11.67-50.5-3.03-17.38 9.13-22.27 28.33-23.11 46.62-0.88 19.63 1.83 39.38 4.4 58.78 2.51 18.84 6.19 38.27 4.82 57.34-1.17 16.23-7.63 32.86-20.41 43.46-12.49 10.33-28.79 13.59-44.63 13.69-18.09 0.13-36.32-2.9-53.95-6.75-18.29-4.04-36.54-8.93-54.25-15.22 1.83-17.47 1.73-37.29-1.24-59.56-16.27-122.19-130.92-146.34-184.84-170.3-38.31-17.02-72.67-58.13-103.57-103.54-18.55-27.29-33.12-68.43-39.58-88.38 3.59 3.33 8.18 6.94 12.78 8.77 17.83 7.07 37 3.42 48.84-6.75 19.46-16.69 4.63-52.29 4.63-52.29s0.39-8.05-0.2-13.04c-0.42-3.65-2.18-6.39-9.49-9.88l0.16-9.13-6.62 6.39c-1.17-0.46-2.45-0.91-3.81-1.4-16.1-5.74-16.69-21.29-10.33-31.62 1.43-2.35 4.82-4.73 9.19-6.98l2.18 6.55 6.49-10.5h0.03c3.29-1.34 6.75-2.58 10.14-3.75l2.51 7.56 6.45-10.4c7.76-2.35 13.59-3.78 13.59-3.78s0.82-5.77 1.63-14.34c6.1 2.71 10.66 4.43 11.18 4.6l-10.82-8.54c0.2-2.18 0.39-4.5 0.59-6.91 1.08-0.39 2.12-0.78 3.16-1.21 13.86-5.51 27.87-14.08 27.87-14.08l-30.71 7.43c0-0.16 0-0.33-0.03-0.49 8.51-8.31 15.45-16.82 15.94-17.44l-16.98 11.12c-0.55-1.86-1.34-3.65-2.25-5.31v-0.03c2.84-6.45 4.66-11.41 4.82-11.93l-6.88 8.83c-7.04-9.58-19.92-15.55-31.46-18.84-16.92-4.86-56.95 0.98-56.95 0.98s-51.74-7.69-116.77 18.42a131.24 131.24 0 0 0-17.7 8.74c-5.44-3.19-9.52-5.25-9.98-5.48l6.75 7.43c-1.99 1.24-3.91 2.54-5.8 3.85-6.98-1.99-12.32-3.13-12.97-3.26l9.26 6c-1.76 1.34-3.49 2.71-5.15 4.11h-0.03c-11.61-1.08-21.87-0.95-21.87-0.95l16.17 5.97c-1.01 0.91-1.99 1.86-2.97 2.84-3.33-0.42-6.72-0.65-10.17-0.65-32.93 0-59.63 19.72-59.63 44.08 0 14.41 9.32 27.19 23.77 35.24-0.39 1.3-0.55 1.99-0.55 1.99s-22.27 32.96-27.61 56.76c-5.38 23.77-3.85 56.76-3.85 56.76S91.65 409.94 99.31 471.3c7.66 61.35 32.21 111.98 32.21 111.98s5.31 40.33 13.82 59.82c13.07 30.06 14.8 40.75 15.58 52.94 1.14 16.89 4.37 82.28-5.28 98.71-6.45 11.02-11.83 17.34-16.59 21.32-3.13 2.67-6 4.37-8.77 5.77-3.06 1.53-11.08 5.38-18.42 10.56-0.07 0.07-0.13 0.1-0.2 0.16-0.85 0.62-1.63 1.21-2.38 1.76-0.65 0.49-1.27 0.95-1.86 1.43-5.41 4.08-9.1 7.47-12.29 14.6-1.96 4.4-3.33 15.52 10.76 21.26 5.74 2.31 10.66 2.84 14.93 2.15-0.03-0.03-0.03-0.07-0.07-0.1a23.942 23.942 0 0 1-3.33-12.23c0-2.9 0.49-5.67 1.43-8.22-0.49 2.09-0.75 4.27-0.75 6.52 0 5.41 1.53 10.5 4.17 14.8a28.251 28.251 0 0 0 24.16 13.53c1.17 0 2.35-0.1 3.46-0.26 0.46-0.03 0.91-0.1 1.37-0.16-4.5-5.02-7.3-11.64-7.3-18.94 0-3.1 0.49-6.1 1.47-8.9-0.55 2.18-0.85 4.47-0.85 6.85 0 9.45 4.63 17.83 11.77 22.98 2.58-15.81 25.49-23.77 43.36-46.98 0.75-0.95 1.47-1.99 2.18-3.06 11.41-17.51 18.03-49.68 22.01-69.47 6.03-30.16 24.81-110.25 24.16-125.05-1.01-22.23-13.01-19.59-39.22-85.12-10.17-25.36-8.48-51.21-2.97-72.76-4.34 20.83-4.79 44.83 4.66 68.46 27.16 67.91 39.61 65.17 40.65 88.22 0.68 15.35-18.78 98.36-25.04 129.62-3.78 18.91-8.7 49.72-19.66 67.84-1.63 2.77-3.46 5.25-5.41 7.34-9.94 10.6-17.25 16.07-22.82 20.24-0.16 0.1-0.29 0.2-0.42 0.29-6.52 4.89-10.73 8.15-14.28 16.14-0.78 1.76-1.47 4.56-1.11 7.66 0.52 4.73 3.39 10.14 11.87 13.59 5.74 2.31 10.66 2.84 14.93 2.15a24.023 24.023 0 0 1-3.39-12.32c0-1.7 0.16-3.33 0.49-4.89 0.23-1.14 0.55-2.25 0.95-3.33-0.23 1.01-0.42 2.05-0.55 3.13-0.13 1.11-0.2 2.25-0.2 3.39 0 15.65 12.68 28.33 28.33 28.33 1.66 0 3.26-0.16 4.82-0.42-4.5-5.02-7.3-11.64-7.3-18.94 0-3.1 0.49-6.1 1.47-8.9-0.55 2.18-0.85 4.47-0.85 6.85 0 15.65 12.68 28.33 28.33 28.33 6.26 0 12.03-2.05 16.72-5.51-7.24-5.12-11.96-13.56-11.96-23.11 0-0.46 0-0.95 0.07-1.4 0.88 14.83 13.2 26.57 28.26 26.57 15.65 0 28.33-12.68 28.33-28.33 0-4.5-1.04-8.77-2.93-12.55 0.78-32.89 9.42-87.27 25.75-107.52 0.78-0.98 1.56-1.89 2.28-2.77 5.61 5.71 11.21 10.27 16.89 13.5 3.52 2.02 7.14 3.91 10.86 5.77 2.54-5.15 7.63-10.53 17.44-14.7 10.33-4.37 31.43-3.16 52.1-0.29-24.74-21.81-40.39-54.18-40.39-90.3 0-20.67 5.12-40.1 14.12-57.02-7.17 16.07-11.15 33.87-11.15 52.62 0 39.25 17.47 74.39 45.09 98.09-23.05-3.13-46.65-4.53-58.13 0.33-27.58 11.64-14.77 33.32-14.77 33.32s-5.22 16.66 9.62 27.78c8.44 6.32 18.19 5.61 18.19 5.61s10.37 21.35 43 17.6c39.87-4.6 45.8-17.05 66.73-15.52 19.14 1.4 91.38 14.02 115.27 5.02 13.69-5.12 24.94-14.67 20.02-26.7h0.03s25.49-18.06 41.76-59.56c7.73 2.18 15.49 4.14 23.31 5.93 33.32 7.73 68.75 14.15 103.08 10.95 38.14-3.52 73.02-22.33 89-58.52 16.85-38.11 5.8-78.63-1.04-117.69-1.7-9.65-3.26-19.36-4.21-29.11-0.82-8.54-2.18-19.36 0.88-27.58 2.58-6.91 10.99-9.19 17.51-7.04 7.95 2.64 14.34 9.75 19.04 16.4 4.14 5.84 6.65 12.75 14.7 13.79 7.37 0.95 14.31-4.34 15.49-11.64 1.3-8.25-5.77-17.08-10.34-23.31zM291.72 182.2c-7.98 0-14.52-5.89-15.67-13.54l29.48-10.12c1.3 2.3 2.1 4.92 2.1 7.76 0 8.78-7.12 15.9-15.91 15.9z" fill="#d81e06" p-id="7088"></path></svg>